<svg width="637" height="559" viewBox="0 0 637 559" fill="none" xmlns="http://www.w3.org/2000/svg">
<g opacity="0.05" clip-path="url(#clip0_1_9696)">
<path d="M111.093 355.647H70.0771V551.67H111.093V355.647Z" fill="#333333"/>
<path d="M99.7827 345.709H81.139V356.765H99.7827V345.709Z" fill="#333333"/>
<path d="M95.9297 339.25H85.1164V345.585H95.9297V339.25Z" fill="#333333"/>
<path d="M89.8394 355.274L90.5852 248.443L91.2067 355.274H89.8394Z" fill="#333333"/>
<path opacity="0.09" d="M92.6981 370.43H88.348V374.777H92.6981V370.43Z" fill="white"/>
<path opacity="0.33" d="M92.6981 384.218H88.348V388.566H92.6981V384.218Z" fill="white"/>
<path opacity="0.37" d="M92.6981 398.131H88.348V402.479H92.6981V398.131Z" fill="white"/>
<path opacity="0.14" d="M92.6981 411.92H88.348V416.268H92.6981V411.92Z" fill="white"/>
<path opacity="0.3" d="M92.6981 425.833H88.348V430.181H92.6981V425.833Z" fill="white"/>
<path opacity="0.16" d="M92.6981 439.621H88.348V443.969H92.6981V439.621Z" fill="white"/>
<path opacity="0.34" d="M92.6981 453.534H88.348V457.882H92.6981V453.534Z" fill="white"/>
<path opacity="0.29" d="M92.6981 467.323H88.348V471.671H92.6981V467.323Z" fill="white"/>
<path opacity="0.12" d="M92.6981 481.236H88.348V485.584H92.6981V481.236Z" fill="white"/>
<path d="M36.1456 399.995H-92.3715V571.049H36.1456V399.995Z" fill="#4D4D4D"/>
<path d="M2.46272 407.075H-4.37329V413.907H2.46272V407.075Z" fill="white"/>
<path d="M11.536 407.075H4.69995V413.907H11.536V407.075Z" fill="white"/>
<path d="M2.46272 416.019H-4.37329V422.852H2.46272V416.019Z" fill="white"/>
<path d="M11.536 416.019H4.69995V422.852H11.536V416.019Z" fill="white"/>
<path d="M2.46272 424.963H-4.37329V431.796H2.46272V424.963Z" fill="white"/>
<path d="M11.536 424.963H4.69995V431.796H11.536V424.963Z" fill="white"/>
<path d="M2.46272 433.783H-4.37329V440.615H2.46272V433.783Z" fill="white"/>
<path d="M11.536 433.783H4.69995V440.615H11.536V433.783Z" fill="white"/>
<path d="M2.46272 442.727H-4.37329V449.559H2.46272V442.727Z" fill="white"/>
<path d="M11.536 442.727H4.69995V449.559H11.536V442.727Z" fill="white"/>
<path d="M2.46272 451.671H-4.37329V458.503H2.46272V451.671Z" fill="white"/>
<path d="M11.536 451.671H4.69995V458.503H11.536V451.671Z" fill="white"/>
<path d="M2.46272 460.615H-4.37329V467.447H2.46272V460.615Z" fill="white"/>
<path d="M11.536 460.615H4.69995V467.447H11.536V460.615Z" fill="white"/>
<path d="M2.46272 469.559H-4.37329V476.391H2.46272V469.559Z" fill="white"/>
<path d="M11.536 469.559H4.69995V476.391H11.536V469.559Z" fill="white"/>
<path d="M2.46272 478.379H-4.37329V485.211H2.46272V478.379Z" fill="white"/>
<path d="M11.536 478.379H4.69995V485.211H11.536V478.379Z" fill="white"/>
<path d="M2.46272 487.323H-4.37329V494.155H2.46272V487.323Z" fill="white"/>
<path d="M11.536 487.323H4.69995V494.155H11.536V487.323Z" fill="white"/>
<path d="M2.46272 496.267H-4.37329V503.099H2.46272V496.267Z" fill="white"/>
<path d="M11.536 496.267H4.69995V503.099H11.536V496.267Z" fill="white"/>
<path d="M2.46272 505.211H-4.37329V512.043H2.46272V505.211Z" fill="white"/>
<path d="M11.536 505.211H4.69995V512.043H11.536V505.211Z" fill="white"/>
<path d="M2.46272 514.155H-4.37329V520.987H2.46272V514.155Z" fill="white"/>
<path d="M11.536 514.155H4.69995V520.987H11.536V514.155Z" fill="white"/>
<path d="M2.46272 522.975H-4.37329V529.807H2.46272V522.975Z" fill="white"/>
<path d="M11.536 522.975H4.69995V529.807H11.536V522.975Z" fill="white"/>
<path d="M20.6093 522.975H13.7733V529.807H20.6093V522.975Z" fill="white"/>
<path d="M2.46272 531.919H-4.37329V538.751H2.46272V531.919Z" fill="white"/>
<path d="M11.536 531.919H4.69995V538.751H11.536V531.919Z" fill="white"/>
<path d="M20.6093 531.919H13.7733V538.751H20.6093V531.919Z" fill="white"/>
<path d="M2.46272 540.863H-4.37329V547.695H2.46272V540.863Z" fill="white"/>
<path d="M11.536 540.863H4.69995V547.695H11.536V540.863Z" fill="white"/>
<path d="M20.6093 540.863H13.7733V547.695H20.6093V540.863Z" fill="white"/>
<path d="M2.46272 549.807H-4.37329V556.639H2.46272V549.807Z" fill="white"/>
<path d="M11.536 549.807H4.69995V556.639H11.536V549.807Z" fill="white"/>
<path d="M20.6093 549.807H13.7733V556.639H20.6093V549.807Z" fill="white"/>
<path d="M2.46272 558.75H-4.37329V565.583H2.46272V558.75Z" fill="white"/>
<path d="M11.536 558.75H4.69995V565.583H11.536V558.75Z" fill="white"/>
<path d="M20.6093 558.75H13.7733V565.583H20.6093V558.75Z" fill="white"/>
<path d="M17.1291 382.604H-73.3549V399.995H17.1291V382.604Z" fill="#4D4D4D"/>
<path opacity="0.19" d="M20.6093 407.075H13.7733V413.907H20.6093V407.075Z" fill="white"/>
<path opacity="0.24" d="M20.6093 416.019H13.7733V422.851H20.6093V416.019Z" fill="white"/>
<path opacity="0.29" d="M20.6093 424.963H13.7733V431.795H20.6093V424.963Z" fill="white"/>
<path opacity="0.39" d="M20.6093 433.783H13.7733V440.615H20.6093V433.783Z" fill="white"/>
<path opacity="0.21" d="M20.6093 442.727H13.7733V449.559H20.6093V442.727Z" fill="white"/>
<path opacity="0.48" d="M20.6093 451.671H13.7733V458.503H20.6093V451.671Z" fill="white"/>
<path opacity="0.32" d="M20.6093 460.615H13.7733V467.447H20.6093V460.615Z" fill="white"/>
<path opacity="0.13" d="M20.6093 469.559H13.7733V476.391H20.6093V469.559Z" fill="white"/>
<path opacity="0.19" d="M20.6093 478.379H13.7733V485.211H20.6093V478.379Z" fill="white"/>
<path opacity="0.03" d="M20.6093 487.323H13.7733V494.155H20.6093V487.323Z" fill="white"/>
<path opacity="0.36" d="M20.6093 496.267H13.7733V503.099H20.6093V496.267Z" fill="white"/>
<path opacity="0.25" d="M20.6093 505.211H13.7733V512.043H20.6093V505.211Z" fill="white"/>
<path d="M20.6093 514.155H13.7733V520.987H20.6093V514.155Z" fill="white"/>
<path d="M296.66 477.633H255.644V573.657H296.66V477.633Z" fill="#333333"/>
<path d="M274.288 472.789H255.644V478.254H274.288V472.789Z" fill="#333333"/>
<path d="M266.457 469.683H255.644V472.789H266.457V469.683Z" fill="#333333"/>
<path opacity="0.06" d="M279.508 484.341H272.796V489.31H279.508V484.341Z" fill="white"/>
<path opacity="0.12" d="M279.508 496.639H272.796V501.608H279.508V496.639Z" fill="white"/>
<path opacity="0.19" d="M279.508 521.235H272.796V526.204H279.508V521.235Z" fill="white"/>
<path opacity="0.14" d="M279.508 545.831H272.796V550.8H279.508V545.831Z" fill="white"/>
<path opacity="0.1" d="M279.508 558.129H272.796V563.098H279.508V558.129Z" fill="white"/>
<path d="M193.747 488.068H137.567V539.496H193.747V488.068Z" fill="#333333"/>
<path d="M184.922 483.472H146.516V505.583H184.922V483.472Z" fill="#333333"/>
<path d="M197.848 520.49H141.669V571.918H197.848V520.49Z" fill="#333333"/>
<path d="M188.9 515.894H150.494V538.005H188.9V515.894Z" fill="#333333"/>
<path d="M272.672 513.658H216.492V572.912H272.672V513.658Z" fill="#333333"/>
<path d="M263.847 508.44H225.441V534.03H263.847V508.44Z" fill="#333333"/>
<path d="M460.724 531.67H404.545V588.937H460.724V531.67Z" fill="#333333"/>
<path d="M451.9 526.577H413.494V551.297H451.9V526.577Z" fill="#333333"/>
<path d="M338.919 413.41H276.152V572.788H338.919V413.41Z" fill="#333333"/>
<path opacity="0.46" d="M294.423 420.615H279.259V423.473H294.423V420.615Z" fill="#E6E6E6"/>
<path opacity="0.34" d="M315.179 420.615H300.016V423.473H315.179V420.615Z" fill="#E6E6E6"/>
<path opacity="0.52" d="M335.812 420.615H320.648V423.473H335.812V420.615Z" fill="#E6E6E6"/>
<path opacity="0.54" d="M294.423 427.199H279.259V430.056H294.423V427.199Z" fill="#E6E6E6"/>
<path opacity="0.3" d="M315.179 427.199H300.016V430.056H315.179V427.199Z" fill="#E6E6E6"/>
<path opacity="0.06" d="M335.812 427.199H320.648V430.056H335.812V427.199Z" fill="#E6E6E6"/>
<path opacity="0.15" d="M294.423 433.783H279.259V436.64H294.423V433.783Z" fill="#E6E6E6"/>
<path opacity="0.42" d="M315.179 433.783H300.016V436.64H315.179V433.783Z" fill="#E6E6E6"/>
<path opacity="0.48" d="M335.812 433.783H320.648V436.64H335.812V433.783Z" fill="#E6E6E6"/>
<path opacity="0.18" d="M294.423 440.367H279.259V443.224H294.423V440.367Z" fill="#E6E6E6"/>
<path opacity="0.28" d="M335.812 440.367H320.648V443.224H335.812V440.367Z" fill="#E6E6E6"/>
<path opacity="0.29" d="M294.423 446.95H279.259V449.808H294.423V446.95Z" fill="#E6E6E6"/>
<path opacity="0.28" d="M315.179 446.95H300.016V449.808H315.179V446.95Z" fill="#E6E6E6"/>
<path opacity="0.56" d="M335.812 446.95H320.648V449.808H335.812V446.95Z" fill="#E6E6E6"/>
<path opacity="0.41" d="M294.423 453.534H279.259V456.392H294.423V453.534Z" fill="#E6E6E6"/>
<path opacity="0.16" d="M315.179 453.534H300.016V456.392H315.179V453.534Z" fill="#E6E6E6"/>
<path opacity="0.4" d="M335.812 453.534H320.648V456.392H335.812V453.534Z" fill="#E6E6E6"/>
<path opacity="0.1" d="M294.423 460.118H279.259V462.975H294.423V460.118Z" fill="#E6E6E6"/>
<path opacity="0.17" d="M315.179 460.118H300.016V462.975H315.179V460.118Z" fill="#E6E6E6"/>
<path opacity="0.08" d="M335.812 460.118H320.648V462.975H335.812V460.118Z" fill="#E6E6E6"/>
<path opacity="0.49" d="M294.423 466.702H279.259V469.559H294.423V466.702Z" fill="#E6E6E6"/>
<path opacity="0.58" d="M315.179 466.702H300.016V469.559H315.179V466.702Z" fill="#E6E6E6"/>
<path opacity="0.58" d="M335.812 466.702H320.648V469.559H335.812V466.702Z" fill="#E6E6E6"/>
<path opacity="0.26" d="M294.423 473.286H279.259V476.143H294.423V473.286Z" fill="#E6E6E6"/>
<path opacity="0.37" d="M315.179 473.286H300.016V476.143H315.179V473.286Z" fill="#E6E6E6"/>
<path opacity="0.34" d="M335.812 473.286H320.648V476.143H335.812V473.286Z" fill="#E6E6E6"/>
<path opacity="0.55" d="M294.423 479.869H279.259V482.727H294.423V479.869Z" fill="#E6E6E6"/>
<path opacity="0.12" d="M315.179 479.869H300.016V482.727H315.179V479.869Z" fill="#E6E6E6"/>
<path opacity="0.6" d="M335.812 479.869H320.648V482.727H335.812V479.869Z" fill="#E6E6E6"/>
<path opacity="0.02" d="M294.423 486.453H279.259V489.31H294.423V486.453Z" fill="#E6E6E6"/>
<path opacity="0.28" d="M315.179 486.453H300.016V489.31H315.179V486.453Z" fill="#E6E6E6"/>
<path opacity="0.21" d="M335.812 486.453H320.648V489.31H335.812V486.453Z" fill="#E6E6E6"/>
<path opacity="0.57" d="M294.423 493.037H279.259V495.894H294.423V493.037Z" fill="#E6E6E6"/>
<path opacity="0.38" d="M315.179 493.037H300.016V495.894H315.179V493.037Z" fill="#E6E6E6"/>
<path opacity="0.25" d="M335.812 493.037H320.648V495.894H335.812V493.037Z" fill="#E6E6E6"/>
<path opacity="0.15" d="M294.423 499.621H279.259V502.478H294.423V499.621Z" fill="#E6E6E6"/>
<path opacity="0.47" d="M315.179 499.621H300.016V502.478H315.179V499.621Z" fill="#E6E6E6"/>
<path opacity="0.3" d="M335.812 499.621H320.648V502.478H335.812V499.621Z" fill="#E6E6E6"/>
<path opacity="0.4" d="M294.423 506.205H279.259V509.062H294.423V506.205Z" fill="#E6E6E6"/>
<path opacity="0.39" d="M315.179 506.205H300.016V509.062H315.179V506.205Z" fill="#E6E6E6"/>
<path opacity="0.24" d="M335.812 506.205H320.648V509.062H335.812V506.205Z" fill="#E6E6E6"/>
<path opacity="0.46" d="M294.423 512.788H279.259V515.646H294.423V512.788Z" fill="#E6E6E6"/>
<path opacity="0.22" d="M315.179 512.788H300.016V515.646H315.179V512.788Z" fill="#E6E6E6"/>
<path opacity="0.11" d="M335.812 512.788H320.648V515.646H335.812V512.788Z" fill="#E6E6E6"/>
<path opacity="0.11" d="M315.179 519.372H300.016V522.229H315.179V519.372Z" fill="#E6E6E6"/>
<path opacity="0.02" d="M335.812 519.372H320.648V522.229H335.812V519.372Z" fill="#E6E6E6"/>
<path opacity="0.27" d="M294.423 525.956H279.259V528.813H294.423V525.956Z" fill="#E6E6E6"/>
<path opacity="0.21" d="M315.179 525.956H300.016V528.813H315.179V525.956Z" fill="#E6E6E6"/>
<path opacity="0.49" d="M335.812 525.956H320.648V528.813H335.812V525.956Z" fill="#E6E6E6"/>
<path opacity="0.6" d="M294.423 532.54H279.259V535.397H294.423V532.54Z" fill="#E6E6E6"/>
<path opacity="0.31" d="M315.179 532.54H300.016V535.397H315.179V532.54Z" fill="#E6E6E6"/>
<path opacity="0.22" d="M335.812 532.54H320.648V535.397H335.812V532.54Z" fill="#E6E6E6"/>
<path opacity="0.54" d="M294.423 539.124H279.259V541.981H294.423V539.124Z" fill="#E6E6E6"/>
<path opacity="0.6" d="M315.179 539.124H300.016V541.981H315.179V539.124Z" fill="#E6E6E6"/>
<path opacity="0.08" d="M335.812 539.124H320.648V541.981H335.812V539.124Z" fill="#E6E6E6"/>
<path opacity="0.55" d="M315.179 545.707H300.016V548.564H315.179V545.707Z" fill="#E6E6E6"/>
<path d="M335.812 545.707H320.648V548.564H335.812V545.707Z" fill="#E6E6E6"/>
<path opacity="0.6" d="M295.417 420.615H294.423V548.564H295.417V420.615Z" fill="#E6E6E6"/>
<path opacity="0.6" d="M320.648 420.615H319.654V548.564H320.648V420.615Z" fill="#E6E6E6"/>
<path d="M370.24 413.41H338.919V572.788H370.24V413.41Z" fill="#4D4D4D"/>
<path opacity="0.69" d="M365.642 420.615H342.026V423.473H365.642V420.615Z" fill="#E6E6E6"/>
<path opacity="0.79" d="M365.642 427.199H342.026V430.056H365.642V427.199Z" fill="#E6E6E6"/>
<path opacity="0.19" d="M365.642 433.783H342.026V436.64H365.642V433.783Z" fill="#E6E6E6"/>
<path opacity="0.88" d="M365.642 440.367H342.026V443.224H365.642V440.367Z" fill="#E6E6E6"/>
<path opacity="0.5" d="M365.642 446.95H342.026V449.808H365.642V446.95Z" fill="#E6E6E6"/>
<path opacity="0.25" d="M365.642 453.534H342.026V456.392H365.642V453.534Z" fill="#E6E6E6"/>
<path opacity="0.91" d="M365.642 460.118H342.026V462.975H365.642V460.118Z" fill="#E6E6E6"/>
<path opacity="0.02" d="M365.642 466.702H342.026V469.559H365.642V466.702Z" fill="#E6E6E6"/>
<path opacity="0.53" d="M365.642 473.286H342.026V476.143H365.642V473.286Z" fill="#E6E6E6"/>
<path opacity="0.65" d="M365.642 479.869H342.026V482.727H365.642V479.869Z" fill="#E6E6E6"/>
<path d="M365.642 486.453H342.026V489.31H365.642V486.453Z" fill="#E6E6E6"/>
<path opacity="0.8" d="M365.642 493.037H342.026V495.894H365.642V493.037Z" fill="#E6E6E6"/>
<path opacity="0.82" d="M365.642 499.621H342.026V502.478H365.642V499.621Z" fill="#E6E6E6"/>
<path opacity="0.75" d="M365.642 506.205H342.026V509.062H365.642V506.205Z" fill="#E6E6E6"/>
<path opacity="0.31" d="M365.642 512.788H342.026V515.646H365.642V512.788Z" fill="#E6E6E6"/>
<path opacity="0.22" d="M365.642 519.372H342.026V522.229H365.642V519.372Z" fill="#E6E6E6"/>
<path opacity="0.43" d="M365.642 525.956H342.026V528.813H365.642V525.956Z" fill="#E6E6E6"/>
<path opacity="0.68" d="M365.642 532.54H342.026V535.397H365.642V532.54Z" fill="#E6E6E6"/>
<path opacity="0.38" d="M365.642 539.124H342.026V541.981H365.642V539.124Z" fill="#E6E6E6"/>
<path opacity="0.84" d="M365.642 545.707H342.026V548.564H365.642V545.707Z" fill="#E6E6E6"/>
<path d="M287.214 404.963V413.41H327.857V404.963H287.214ZM296.287 410.678H292.061V407.82H296.287V410.678ZM302.875 410.678H298.773V407.82H302.875V410.678ZM309.586 410.678H305.485V407.82H309.586V410.678ZM316.298 410.678H312.072V407.82H316.298V410.678ZM323.01 410.678H318.784V407.82H323.01V410.678Z" fill="#333333"/>
<path d="M335.315 407.821H334.196V410.678H335.315V407.821Z" fill="#333333"/>
<path d="M327.857 404.963V413.41H346.998V404.963H327.857ZM335.315 410.678H331.213V407.82H335.315V410.678ZM344.139 410.678H340.038V407.82H344.139V410.678Z" fill="#4D4D4D"/>
<path d="M344.015 407.821H342.896V410.678H344.015V407.821Z" fill="#333333"/>
<path d="M347.246 583.595H262.728L347.246 521.235V583.595Z" fill="#333333"/>
<path d="M221.215 379.622H214.379V405.585H221.215V379.622Z" fill="#4D4D4D"/>
<path d="M214.504 379.622H207.543V405.585H214.504V379.622Z" fill="#333333"/>
<path d="M228.3 379.622H221.34V405.585H228.3V379.622Z" fill="#666666"/>
<path d="M248.435 423.348H229.046V571.421H248.435V423.348Z" fill="#666666"/>
<path d="M206.3 423.348H189.397V571.421H206.3V423.348Z" fill="#333333"/>
<path d="M229.046 423.348H206.176V571.421H229.046V423.348Z" fill="#4D4D4D"/>
<path opacity="0.6" d="M194.244 427.696H191.758V569.434H194.244V427.696Z" fill="#E6E6E6"/>
<path opacity="0.6" d="M199.091 427.696H196.606V569.434H199.091V427.696Z" fill="#E6E6E6"/>
<path opacity="0.6" d="M203.939 427.696H201.453V569.434H203.939V427.696Z" fill="#E6E6E6"/>
<path d="M232.899 427.696H230.413V569.434H232.899V427.696Z" fill="#E6E6E6"/>
<path d="M237.746 427.696H235.26V569.434H237.746V427.696Z" fill="#E6E6E6"/>
<path d="M247.192 427.696H244.706V569.434H247.192V427.696Z" fill="#E6E6E6"/>
<path d="M242.593 427.696H240.108V569.434H242.593V427.696Z" fill="#E6E6E6"/>
<path opacity="0.8" d="M209.035 569.434H226.187V427.696H209.035V569.434ZM211.769 430.18H223.452V566.949H211.769V430.18Z" fill="#E6E6E6"/>
<path opacity="0.8" d="M214.006 564.589H221.34V432.417H214.006V564.589ZM216.492 435.522H217.362H217.859H218.854V561.483H217.859H217.362H216.492V435.522Z" fill="#E6E6E6"/>
<path opacity="0.8" d="M217.859 435.522H217.362V561.483H217.859V435.522Z" fill="#E6E6E6"/>
<path d="M226.435 397.386H209.283V423.348H226.435V397.386Z" fill="#4D4D4D"/>
<path d="M226.435 397.386H209.283V423.348H226.435V397.386Z" fill="#4D4D4D"/>
<path d="M243.588 397.386H226.435V423.348H243.588V397.386Z" fill="#666666"/>
<path d="M209.283 397.386H192.131V423.348H209.283V397.386Z" fill="#333333"/>
<path d="M228.176 379.622H207.543L214.379 384.342H221.34L228.176 379.622Z" fill="#808080"/>
<path d="M596.948 370.057H587.004V399.249H596.948V370.057Z" fill="#4D4D4D"/>
<path d="M586.88 370.057H576.937V399.249H586.88V370.057Z" fill="#333333"/>
<path d="M606.891 370.057H596.948V399.249H606.891V370.057Z" fill="#666666"/>
<path d="M636.224 419.373H608.134V586.203H636.224V419.373Z" fill="#666666"/>
<path d="M575.072 419.373H550.711V586.203H575.072V419.373Z" fill="#333333"/>
<path d="M608.134 419.373H575.072V586.203H608.134V419.373Z" fill="#4D4D4D"/>
<path opacity="0.4" d="M557.671 424.342H554.067V583.968H557.671V424.342Z" fill="#E6E6E6"/>
<path opacity="0.4" d="M564.756 424.342H561.152V583.968H564.756V424.342Z" fill="#E6E6E6"/>
<path opacity="0.4" d="M571.841 424.342H568.236V583.968H571.841V424.342Z" fill="#E6E6E6"/>
<path d="M613.727 424.342H610.122V583.968H613.727V424.342Z" fill="#E6E6E6"/>
<path d="M620.811 424.342H617.207V583.968H620.811V424.342Z" fill="#E6E6E6"/>
<path d="M634.359 424.342H630.755V583.968H634.359V424.342Z" fill="#E6E6E6"/>
<path d="M627.772 424.342H624.167V583.968H627.772V424.342Z" fill="#E6E6E6"/>
<path d="M579.298 583.968H604.156V424.342H579.298V583.968ZM583.151 427.075H600.055V581.235H583.151V427.075Z" fill="#E6E6E6"/>
<path d="M586.258 578.626H596.948V429.684H586.258V578.626ZM589.987 433.162H591.354H591.976H593.343V575.148H591.976H591.354H589.987V433.162Z" fill="#E6E6E6"/>
<path d="M591.976 433.162H591.354V575.148H591.976V433.162Z" fill="#E6E6E6"/>
<path d="M604.405 390.181H579.547V419.373H604.405V390.181Z" fill="#4D4D4D"/>
<path d="M604.405 390.181H579.547V419.373H604.405V390.181Z" fill="#4D4D4D"/>
<path d="M629.263 390.181H604.405V419.373H629.263V390.181Z" fill="#666666"/>
<path d="M579.671 390.181H554.813V419.373H579.671V390.181Z" fill="#333333"/>
<path d="M607.015 370.057H576.937L587.004 375.398H596.948L607.015 370.057Z" fill="#808080"/>
<path d="M525.232 442.479H457.244V465.087H525.232V442.479Z" fill="#E6E6E6"/>
<path d="M483.967 442.479H457.244V465.087H483.967V442.479Z" fill="#B3B3B3"/>
<path d="M483.967 465.211H431.143V575.024H483.967V465.211Z" fill="#333333"/>
<path d="M566.496 465.211H483.967V575.024H566.496V465.211Z" fill="#4D4D4D"/>
<path d="M477.504 454.031H436.86V465.211H477.504V454.031Z" fill="#333333"/>
<path d="M554.191 454.031H496.147V465.211H554.191V454.031Z" fill="#4D4D4D"/>
<path d="M507.209 433.907H483.967V442.479H507.209V433.907Z" fill="#E6E6E6"/>
<path d="M495.526 425.212H483.967V433.783H495.526V425.212Z" fill="#4D4D4D"/>
<path d="M483.843 425.212H472.283V433.783H483.843V425.212Z" fill="#333333"/>
<path d="M483.967 433.907H466.193V442.479H483.967V433.907Z" fill="#B3B3B3"/>
<path d="M483.221 425.212L483.967 405.336L484.588 425.212H483.221Z" fill="#333333"/>
<path opacity="0.12" d="M447.798 469.683H443.448V474.031H447.798V469.683Z" fill="white"/>
<path opacity="0.25" d="M453.764 469.683H449.414V474.031H453.764V469.683Z" fill="white"/>
<path opacity="0.36" d="M459.73 469.683H455.38V474.031H459.73V469.683Z" fill="white"/>
<path opacity="0.12" d="M465.696 469.683H461.346V474.031H465.696V469.683Z" fill="white"/>
<path opacity="0.14" d="M471.662 469.683H467.312V474.031H471.662V469.683Z" fill="white"/>
<path opacity="0.28" d="M447.798 475.398H443.448V479.745H447.798V475.398Z" fill="white"/>
<path opacity="0.4" d="M453.764 475.398H449.414V479.745H453.764V475.398Z" fill="white"/>
<path opacity="0.16" d="M459.73 475.398H455.38V479.745H459.73V475.398Z" fill="white"/>
<path opacity="0.17" d="M471.662 475.398H467.312V479.745H471.662V475.398Z" fill="white"/>
<path opacity="0.27" d="M447.798 481.112H443.448V485.46H447.798V481.112Z" fill="white"/>
<path opacity="0.45" d="M453.764 481.112H449.414V485.46H453.764V481.112Z" fill="white"/>
<path opacity="0.45" d="M459.73 481.112H455.38V485.46H459.73V481.112Z" fill="white"/>
<path opacity="0.48" d="M465.696 481.112H461.346V485.46H465.696V481.112Z" fill="white"/>
<path opacity="0.25" d="M471.662 481.112H467.312V485.46H471.662V481.112Z" fill="white"/>
<path opacity="0.28" d="M447.798 486.826H443.448V491.174H447.798V486.826Z" fill="white"/>
<path opacity="0.13" d="M453.764 486.826H449.414V491.174H453.764V486.826Z" fill="white"/>
<path opacity="0.07" d="M459.73 486.826H455.38V491.174H459.73V486.826Z" fill="white"/>
<path opacity="0.39" d="M465.696 486.826H461.346V491.174H465.696V486.826Z" fill="white"/>
<path opacity="0.47" d="M471.662 486.826H467.312V491.174H471.662V486.826Z" fill="white"/>
<path opacity="0.28" d="M447.798 492.54H443.448V496.888H447.798V492.54Z" fill="white"/>
<path opacity="0.2" d="M453.764 492.54H449.414V496.888H453.764V492.54Z" fill="white"/>
<path opacity="0.04" d="M459.73 492.54H455.38V496.888H459.73V492.54Z" fill="white"/>
<path opacity="0.43" d="M465.696 492.54H461.346V496.888H465.696V492.54Z" fill="white"/>
<path opacity="0.48" d="M471.662 492.54H467.312V496.888H471.662V492.54Z" fill="white"/>
<path opacity="0.28" d="M447.798 498.254H443.448V502.602H447.798V498.254Z" fill="white"/>
<path opacity="0.19" d="M453.764 498.254H449.414V502.602H453.764V498.254Z" fill="white"/>
<path opacity="0.01" d="M459.73 498.254H455.38V502.602H459.73V498.254Z" fill="white"/>
<path opacity="0.27" d="M465.696 498.254H461.346V502.602H465.696V498.254Z" fill="white"/>
<path opacity="0.24" d="M471.662 498.254H467.312V502.602H471.662V498.254Z" fill="white"/>
<path opacity="0.07" d="M447.798 504.093H443.448V508.441H447.798V504.093Z" fill="white"/>
<path opacity="0.25" d="M453.764 504.093H449.414V508.441H453.764V504.093Z" fill="white"/>
<path opacity="0.26" d="M459.73 504.093H455.38V508.441H459.73V504.093Z" fill="white"/>
<path opacity="0.39" d="M465.696 504.093H461.346V508.441H465.696V504.093Z" fill="white"/>
<path opacity="0.22" d="M471.662 504.093H467.312V508.441H471.662V504.093Z" fill="white"/>
<path opacity="0.15" d="M447.798 509.807H443.448V514.155H447.798V509.807Z" fill="white"/>
<path opacity="0.23" d="M453.764 509.807H449.414V514.155H453.764V509.807Z" fill="white"/>
<path opacity="0.05" d="M459.73 509.807H455.38V514.155H459.73V509.807Z" fill="white"/>
<path opacity="0.2" d="M465.696 509.807H461.346V514.155H465.696V509.807Z" fill="white"/>
<path opacity="0.31" d="M471.662 509.807H467.312V514.155H471.662V509.807Z" fill="white"/>
<path opacity="0.15" d="M447.798 515.521H443.448V519.869H447.798V515.521Z" fill="white"/>
<path opacity="0.33" d="M453.764 515.521H449.414V519.869H453.764V515.521Z" fill="white"/>
<path opacity="0.46" d="M459.73 515.521H455.38V519.869H459.73V515.521Z" fill="white"/>
<path opacity="0.25" d="M465.696 515.521H461.346V519.869H465.696V515.521Z" fill="white"/>
<path opacity="0.43" d="M471.662 515.521H467.312V519.869H471.662V515.521Z" fill="white"/>
<path opacity="0.4" d="M447.798 521.236H443.448V525.583H447.798V521.236Z" fill="white"/>
<path opacity="0.39" d="M453.764 521.236H449.414V525.583H453.764V521.236Z" fill="white"/>
<path opacity="0.01" d="M459.73 521.236H455.38V525.583H459.73V521.236Z" fill="white"/>
<path opacity="0.12" d="M465.696 521.236H461.346V525.583H465.696V521.236Z" fill="white"/>
<path opacity="0.07" d="M471.662 521.236H467.312V525.583H471.662V521.236Z" fill="white"/>
<path opacity="0.07" d="M447.798 526.95H443.448V531.298H447.798V526.95Z" fill="white"/>
<path opacity="0.02" d="M453.764 526.95H449.414V531.298H453.764V526.95Z" fill="white"/>
<path opacity="0.12" d="M459.73 526.95H455.38V531.298H459.73V526.95Z" fill="white"/>
<path opacity="0.23" d="M465.696 526.95H461.346V531.298H465.696V526.95Z" fill="white"/>
<path opacity="0.26" d="M471.662 526.95H467.312V531.298H471.662V526.95Z" fill="white"/>
<path opacity="0.27" d="M447.798 532.664H443.448V537.012H447.798V532.664Z" fill="white"/>
<path opacity="0.38" d="M453.764 532.664H449.414V537.012H453.764V532.664Z" fill="white"/>
<path opacity="0.05" d="M459.73 532.664H455.38V537.012H459.73V532.664Z" fill="white"/>
<path opacity="0.45" d="M465.696 532.664H461.346V537.012H465.696V532.664Z" fill="white"/>
<path opacity="0.15" d="M471.662 532.664H467.312V537.012H471.662V532.664Z" fill="white"/>
<path opacity="0.06" d="M447.798 538.378H443.448V542.726H447.798V538.378Z" fill="white"/>
<path opacity="0.47" d="M453.764 538.378H449.414V542.726H453.764V538.378Z" fill="white"/>
<path opacity="0.15" d="M459.73 538.378H455.38V542.726H459.73V538.378Z" fill="white"/>
<path opacity="0.44" d="M465.696 538.378H461.346V542.726H465.696V538.378Z" fill="white"/>
<path opacity="0.14" d="M471.662 538.378H467.312V542.726H471.662V538.378Z" fill="white"/>
<path opacity="0.15" d="M447.798 544.093H443.448V548.44H447.798V544.093Z" fill="white"/>
<path opacity="0.43" d="M453.764 544.093H449.414V548.44H453.764V544.093Z" fill="white"/>
<path opacity="0.07" d="M459.73 544.093H455.38V548.44H459.73V544.093Z" fill="white"/>
<path opacity="0.47" d="M465.696 544.093H461.346V548.44H465.696V544.093Z" fill="white"/>
<path opacity="0.11" d="M471.662 544.093H467.312V548.44H471.662V544.093Z" fill="white"/>
<path opacity="0.07" d="M447.798 549.807H443.448V554.154H447.798V549.807Z" fill="white"/>
<path opacity="0.34" d="M453.764 549.807H449.414V554.154H453.764V549.807Z" fill="white"/>
<path opacity="0.5" d="M459.73 549.807H455.38V554.154H459.73V549.807Z" fill="white"/>
<path opacity="0.36" d="M465.696 549.807H461.346V554.154H465.696V549.807Z" fill="white"/>
<path opacity="0.34" d="M471.662 549.807H467.312V554.154H471.662V549.807Z" fill="white"/>
<path opacity="0.47" d="M447.798 555.521H443.448V559.869H447.798V555.521Z" fill="white"/>
<path opacity="0.41" d="M453.764 555.521H449.414V559.869H453.764V555.521Z" fill="white"/>
<path opacity="0.3" d="M459.73 555.521H455.38V559.869H459.73V555.521Z" fill="white"/>
<path opacity="0.33" d="M465.696 555.521H461.346V559.869H465.696V555.521Z" fill="white"/>
<path opacity="0.12" d="M471.662 555.521H467.312V559.869H471.662V555.521Z" fill="white"/>
<path opacity="0.3" d="M498.385 469.683H494.034V474.031H498.385V469.683Z" fill="white"/>
<path opacity="0.72" d="M504.102 469.683H499.752V474.031H504.102V469.683Z" fill="white"/>
<path opacity="0.7" d="M509.944 469.683H505.594V474.031H509.944V469.683Z" fill="white"/>
<path opacity="0.52" d="M515.785 469.683H511.435V474.031H515.785V469.683Z" fill="white"/>
<path opacity="0.2" d="M521.627 469.683H517.277V474.031H521.627V469.683Z" fill="white"/>
<path opacity="0.32" d="M527.344 469.683H522.994V474.031H527.344V469.683Z" fill="white"/>
<path opacity="0.13" d="M533.186 469.683H528.836V474.031H533.186V469.683Z" fill="white"/>
<path opacity="0.38" d="M539.028 469.683H534.678V474.031H539.028V469.683Z" fill="white"/>
<path opacity="0.61" d="M544.745 469.683H540.395V474.031H544.745V469.683Z" fill="white"/>
<path d="M550.587 469.683H546.237V474.031H550.587V469.683Z" fill="white"/>
<path opacity="0.91" d="M556.429 469.683H552.078V474.031H556.429V469.683Z" fill="white"/>
<path opacity="0.66" d="M498.385 475.398H494.034V479.745H498.385V475.398Z" fill="white"/>
<path opacity="0.31" d="M504.102 475.398H499.752V479.745H504.102V475.398Z" fill="white"/>
<path opacity="0.95" d="M509.944 475.398H505.594V479.745H509.944V475.398Z" fill="white"/>
<path opacity="0.7" d="M515.785 475.398H511.435V479.745H515.785V475.398Z" fill="white"/>
<path opacity="0.12" d="M521.627 475.398H517.277V479.745H521.627V475.398Z" fill="white"/>
<path opacity="0.24" d="M527.344 475.398H522.994V479.745H527.344V475.398Z" fill="white"/>
<path opacity="0.66" d="M533.186 475.398H528.836V479.745H533.186V475.398Z" fill="white"/>
<path opacity="0.71" d="M539.028 475.398H534.678V479.745H539.028V475.398Z" fill="white"/>
<path opacity="0.42" d="M544.745 475.398H540.395V479.745H544.745V475.398Z" fill="white"/>
<path opacity="0.09" d="M550.587 475.398H546.237V479.745H550.587V475.398Z" fill="white"/>
<path opacity="0.32" d="M556.429 475.398H552.078V479.745H556.429V475.398Z" fill="white"/>
<path opacity="0.65" d="M498.385 481.112H494.034V485.46H498.385V481.112Z" fill="white"/>
<path d="M504.102 481.112H499.752V485.46H504.102V481.112Z" fill="white"/>
<path d="M509.944 481.112H505.594V485.46H509.944V481.112Z" fill="white"/>
<path opacity="0.71" d="M515.785 481.112H511.435V485.46H515.785V481.112Z" fill="white"/>
<path opacity="0.2" d="M521.627 481.112H517.277V485.46H521.627V481.112Z" fill="white"/>
<path opacity="0.19" d="M527.344 481.112H522.994V485.46H527.344V481.112Z" fill="white"/>
<path opacity="0.62" d="M533.186 481.112H528.836V485.46H533.186V481.112Z" fill="white"/>
<path opacity="0.93" d="M539.028 481.112H534.678V485.46H539.028V481.112Z" fill="white"/>
<path opacity="0.56" d="M544.745 481.112H540.395V485.46H544.745V481.112Z" fill="white"/>
<path opacity="0.57" d="M550.587 481.112H546.237V485.46H550.587V481.112Z" fill="white"/>
<path opacity="0.52" d="M556.429 481.112H552.078V485.46H556.429V481.112Z" fill="white"/>
<path opacity="0.74" d="M498.385 486.826H494.034V491.174H498.385V486.826Z" fill="white"/>
<path opacity="0.56" d="M504.102 486.826H499.752V491.174H504.102V486.826Z" fill="white"/>
<path opacity="0.78" d="M509.944 486.826H505.594V491.174H509.944V486.826Z" fill="white"/>
<path opacity="0.41" d="M515.785 486.826H511.435V491.174H515.785V486.826Z" fill="white"/>
<path opacity="0.14" d="M521.627 486.826H517.277V491.174H521.627V486.826Z" fill="white"/>
<path opacity="0.28" d="M527.344 486.826H522.994V491.174H527.344V486.826Z" fill="white"/>
<path opacity="0.36" d="M533.186 486.826H528.836V491.174H533.186V486.826Z" fill="white"/>
<path opacity="0.14" d="M539.028 486.826H534.678V491.174H539.028V486.826Z" fill="white"/>
<path opacity="0.5" d="M544.745 486.826H540.395V491.174H544.745V486.826Z" fill="white"/>
<path opacity="0.98" d="M550.587 486.826H546.237V491.174H550.587V486.826Z" fill="white"/>
<path opacity="0.59" d="M556.429 486.826H552.078V491.174H556.429V486.826Z" fill="white"/>
<path opacity="0.07" d="M498.385 492.54H494.034V496.888H498.385V492.54Z" fill="white"/>
<path opacity="0.1" d="M504.102 492.54H499.752V496.888H504.102V492.54Z" fill="white"/>
<path opacity="0.88" d="M509.944 492.54H505.594V496.888H509.944V492.54Z" fill="white"/>
<path opacity="0.68" d="M515.785 492.54H511.435V496.888H515.785V492.54Z" fill="white"/>
<path opacity="0.81" d="M521.627 492.54H517.277V496.888H521.627V492.54Z" fill="white"/>
<path opacity="0.62" d="M527.344 492.54H522.994V496.888H527.344V492.54Z" fill="white"/>
<path opacity="0.97" d="M533.186 492.54H528.836V496.888H533.186V492.54Z" fill="white"/>
<path opacity="0.81" d="M539.028 492.54H534.678V496.888H539.028V492.54Z" fill="white"/>
<path opacity="0.79" d="M544.745 492.54H540.395V496.888H544.745V492.54Z" fill="white"/>
<path opacity="0.03" d="M550.587 492.54H546.237V496.888H550.587V492.54Z" fill="white"/>
<path opacity="0.95" d="M556.429 492.54H552.078V496.888H556.429V492.54Z" fill="white"/>
<path opacity="0.62" d="M498.385 498.254H494.034V502.602H498.385V498.254Z" fill="white"/>
<path opacity="0.22" d="M504.102 498.254H499.752V502.602H504.102V498.254Z" fill="white"/>
<path opacity="0.42" d="M509.944 498.254H505.594V502.602H509.944V498.254Z" fill="white"/>
<path opacity="0.56" d="M515.785 498.254H511.435V502.602H515.785V498.254Z" fill="white"/>
<path opacity="0.03" d="M521.627 498.254H517.277V502.602H521.627V498.254Z" fill="white"/>
<path opacity="0.64" d="M527.344 498.254H522.994V502.602H527.344V498.254Z" fill="white"/>
<path opacity="0.82" d="M533.186 498.254H528.836V502.602H533.186V498.254Z" fill="white"/>
<path opacity="0.52" d="M539.028 498.254H534.678V502.602H539.028V498.254Z" fill="white"/>
<path opacity="0.46" d="M544.745 498.254H540.395V502.602H544.745V498.254Z" fill="white"/>
<path opacity="0.27" d="M550.587 498.254H546.237V502.602H550.587V498.254Z" fill="white"/>
<path opacity="0.46" d="M556.429 498.254H552.078V502.602H556.429V498.254Z" fill="white"/>
<path opacity="0.66" d="M498.385 504.093H494.034V508.441H498.385V504.093Z" fill="white"/>
<path opacity="0.7" d="M504.102 504.093H499.752V508.441H504.102V504.093Z" fill="white"/>
<path opacity="0.94" d="M509.944 504.093H505.594V508.441H509.944V504.093Z" fill="white"/>
<path opacity="0.5" d="M515.785 504.093H511.435V508.441H515.785V504.093Z" fill="white"/>
<path opacity="0.12" d="M521.627 504.093H517.277V508.441H521.627V504.093Z" fill="white"/>
<path opacity="0.36" d="M527.344 504.093H522.994V508.441H527.344V504.093Z" fill="white"/>
<path opacity="0.51" d="M533.186 504.093H528.836V508.441H533.186V504.093Z" fill="white"/>
<path opacity="0.37" d="M539.028 504.093H534.678V508.441H539.028V504.093Z" fill="white"/>
<path opacity="0.66" d="M544.745 504.093H540.395V508.441H544.745V504.093Z" fill="white"/>
<path opacity="0.42" d="M550.587 504.093H546.237V508.441H550.587V504.093Z" fill="white"/>
<path opacity="0.5" d="M556.429 504.093H552.078V508.441H556.429V504.093Z" fill="white"/>
<path opacity="0.52" d="M498.385 509.807H494.034V514.155H498.385V509.807Z" fill="white"/>
<path opacity="0.61" d="M504.102 509.807H499.752V514.155H504.102V509.807Z" fill="white"/>
<path opacity="0.84" d="M509.944 509.807H505.594V514.155H509.944V509.807Z" fill="white"/>
<path opacity="0.89" d="M515.785 509.807H511.435V514.155H515.785V509.807Z" fill="white"/>
<path opacity="0.33" d="M521.627 509.807H517.277V514.155H521.627V509.807Z" fill="white"/>
<path opacity="0.25" d="M527.344 509.807H522.994V514.155H527.344V509.807Z" fill="white"/>
<path opacity="0.95" d="M533.186 509.807H528.836V514.155H533.186V509.807Z" fill="white"/>
<path opacity="0.09" d="M539.028 509.807H534.678V514.155H539.028V509.807Z" fill="white"/>
<path opacity="0.44" d="M544.745 509.807H540.395V514.155H544.745V509.807Z" fill="white"/>
<path opacity="0.51" d="M550.587 509.807H546.237V514.155H550.587V509.807Z" fill="white"/>
<path opacity="0.97" d="M556.429 509.807H552.078V514.155H556.429V509.807Z" fill="white"/>
<path opacity="0.26" d="M498.385 515.521H494.034V519.869H498.385V515.521Z" fill="white"/>
<path opacity="0.92" d="M504.102 515.521H499.752V519.869H504.102V515.521Z" fill="white"/>
<path opacity="0.33" d="M509.944 515.521H505.594V519.869H509.944V515.521Z" fill="white"/>
<path opacity="0.23" d="M515.785 515.521H511.435V519.869H515.785V515.521Z" fill="white"/>
<path opacity="0.42" d="M521.627 515.521H517.277V519.869H521.627V515.521Z" fill="white"/>
<path opacity="0.57" d="M527.344 515.521H522.994V519.869H527.344V515.521Z" fill="white"/>
<path opacity="0.73" d="M533.186 515.521H528.836V519.869H533.186V515.521Z" fill="white"/>
<path opacity="0.87" d="M539.028 515.521H534.678V519.869H539.028V515.521Z" fill="white"/>
<path opacity="0.22" d="M544.745 515.521H540.395V519.869H544.745V515.521Z" fill="white"/>
<path opacity="0.89" d="M550.587 515.521H546.237V519.869H550.587V515.521Z" fill="white"/>
<path opacity="0.73" d="M556.429 515.521H552.078V519.869H556.429V515.521Z" fill="white"/>
<path opacity="0.35" d="M498.385 521.236H494.034V525.583H498.385V521.236Z" fill="white"/>
<path opacity="0.81" d="M504.102 521.236H499.752V525.583H504.102V521.236Z" fill="white"/>
<path opacity="0.56" d="M509.944 521.236H505.594V525.583H509.944V521.236Z" fill="white"/>
<path opacity="0.81" d="M515.785 521.236H511.435V525.583H515.785V521.236Z" fill="white"/>
<path opacity="0.87" d="M521.627 521.236H517.277V525.583H521.627V521.236Z" fill="white"/>
<path opacity="0.39" d="M527.344 521.236H522.994V525.583H527.344V521.236Z" fill="white"/>
<path opacity="0.31" d="M533.186 521.236H528.836V525.583H533.186V521.236Z" fill="white"/>
<path opacity="0.98" d="M539.028 521.236H534.678V525.583H539.028V521.236Z" fill="white"/>
<path opacity="0.17" d="M544.745 521.236H540.395V525.583H544.745V521.236Z" fill="white"/>
<path opacity="0.06" d="M550.587 521.236H546.237V525.583H550.587V521.236Z" fill="white"/>
<path opacity="0.57" d="M556.429 521.236H552.078V525.583H556.429V521.236Z" fill="white"/>
<path opacity="0.67" d="M498.385 526.95H494.034V531.298H498.385V526.95Z" fill="white"/>
<path opacity="0.83" d="M504.102 526.95H499.752V531.298H504.102V526.95Z" fill="white"/>
<path opacity="0.99" d="M509.944 526.95H505.594V531.298H509.944V526.95Z" fill="white"/>
<path opacity="0.62" d="M515.785 526.95H511.435V531.298H515.785V526.95Z" fill="white"/>
<path opacity="0.87" d="M521.627 526.95H517.277V531.298H521.627V526.95Z" fill="white"/>
<path opacity="0.14" d="M527.344 526.95H522.994V531.298H527.344V526.95Z" fill="white"/>
<path opacity="0.12" d="M533.186 526.95H528.836V531.298H533.186V526.95Z" fill="white"/>
<path opacity="0.11" d="M539.028 526.95H534.678V531.298H539.028V526.95Z" fill="white"/>
<path opacity="0.39" d="M544.745 526.95H540.395V531.298H544.745V526.95Z" fill="white"/>
<path opacity="0.58" d="M550.587 526.95H546.237V531.298H550.587V526.95Z" fill="white"/>
<path opacity="0.54" d="M556.429 526.95H552.078V531.298H556.429V526.95Z" fill="white"/>
<path opacity="0.99" d="M498.385 532.664H494.034V537.012H498.385V532.664Z" fill="white"/>
<path opacity="0.28" d="M504.102 532.664H499.752V537.012H504.102V532.664Z" fill="white"/>
<path opacity="0.78" d="M509.944 532.664H505.594V537.012H509.944V532.664Z" fill="white"/>
<path opacity="0.65" d="M515.785 532.664H511.435V537.012H515.785V532.664Z" fill="white"/>
<path opacity="0.32" d="M521.627 532.664H517.277V537.012H521.627V532.664Z" fill="white"/>
<path opacity="0.55" d="M527.344 532.664H522.994V537.012H527.344V532.664Z" fill="white"/>
<path opacity="0.4" d="M533.186 532.664H528.836V537.012H533.186V532.664Z" fill="white"/>
<path opacity="0.22" d="M539.028 532.664H534.678V537.012H539.028V532.664Z" fill="white"/>
<path opacity="0.87" d="M544.745 532.664H540.395V537.012H544.745V532.664Z" fill="white"/>
<path opacity="0.02" d="M550.587 532.664H546.237V537.012H550.587V532.664Z" fill="white"/>
<path opacity="0.39" d="M556.429 532.664H552.078V537.012H556.429V532.664Z" fill="white"/>
<path opacity="0.89" d="M498.385 538.378H494.034V542.726H498.385V538.378Z" fill="white"/>
<path opacity="0.97" d="M504.102 538.378H499.752V542.726H504.102V538.378Z" fill="white"/>
<path opacity="0.79" d="M509.944 538.378H505.594V542.726H509.944V538.378Z" fill="white"/>
<path opacity="0.41" d="M515.785 538.378H511.435V542.726H515.785V538.378Z" fill="white"/>
<path opacity="0.13" d="M521.627 538.378H517.277V542.726H521.627V538.378Z" fill="white"/>
<path opacity="0.9" d="M527.344 538.378H522.994V542.726H527.344V538.378Z" fill="white"/>
<path opacity="0.98" d="M533.186 538.378H528.836V542.726H533.186V538.378Z" fill="white"/>
<path opacity="0.67" d="M539.028 538.378H534.678V542.726H539.028V538.378Z" fill="white"/>
<path opacity="0.65" d="M544.745 538.378H540.395V542.726H544.745V538.378Z" fill="white"/>
<path opacity="0.89" d="M550.587 538.378H546.237V542.726H550.587V538.378Z" fill="white"/>
<path opacity="0.98" d="M556.429 538.378H552.078V542.726H556.429V538.378Z" fill="white"/>
<path opacity="0.29" d="M498.385 544.093H494.034V548.44H498.385V544.093Z" fill="white"/>
<path opacity="0.74" d="M504.102 544.093H499.752V548.44H504.102V544.093Z" fill="white"/>
<path opacity="0.64" d="M509.944 544.093H505.594V548.44H509.944V544.093Z" fill="white"/>
<path opacity="0.65" d="M515.785 544.093H511.435V548.44H515.785V544.093Z" fill="white"/>
<path opacity="0.07" d="M521.627 544.093H517.277V548.44H521.627V544.093Z" fill="white"/>
<path opacity="0.16" d="M527.344 544.093H522.994V548.44H527.344V544.093Z" fill="white"/>
<path opacity="0.84" d="M533.186 544.093H528.836V548.44H533.186V544.093Z" fill="white"/>
<path opacity="0.88" d="M539.028 544.093H534.678V548.44H539.028V544.093Z" fill="white"/>
<path opacity="0.57" d="M544.745 544.093H540.395V548.44H544.745V544.093Z" fill="white"/>
<path opacity="0.31" d="M550.587 544.093H546.237V548.44H550.587V544.093Z" fill="white"/>
<path opacity="0.03" d="M556.429 544.093H552.078V548.44H556.429V544.093Z" fill="white"/>
<path opacity="0.3" d="M498.385 549.807H494.034V554.154H498.385V549.807Z" fill="white"/>
<path opacity="0.59" d="M504.102 549.807H499.752V554.154H504.102V549.807Z" fill="white"/>
<path opacity="0.93" d="M509.944 549.807H505.594V554.154H509.944V549.807Z" fill="white"/>
<path opacity="0.06" d="M515.785 549.807H511.435V554.154H515.785V549.807Z" fill="white"/>
<path opacity="0.74" d="M521.627 549.807H517.277V554.154H521.627V549.807Z" fill="white"/>
<path opacity="0.22" d="M527.344 549.807H522.994V554.154H527.344V549.807Z" fill="white"/>
<path opacity="0.51" d="M533.186 549.807H528.836V554.154H533.186V549.807Z" fill="white"/>
<path opacity="0.7" d="M539.028 549.807H534.678V554.154H539.028V549.807Z" fill="white"/>
<path opacity="0.47" d="M544.745 549.807H540.395V554.154H544.745V549.807Z" fill="white"/>
<path opacity="0.08" d="M550.587 549.807H546.237V554.154H550.587V549.807Z" fill="white"/>
<path opacity="0.93" d="M556.429 549.807H552.078V554.154H556.429V549.807Z" fill="white"/>
<path opacity="0.81" d="M498.385 555.521H494.034V559.869H498.385V555.521Z" fill="white"/>
<path opacity="0.9" d="M504.102 555.521H499.752V559.869H504.102V555.521Z" fill="white"/>
<path opacity="0.55" d="M509.944 555.521H505.594V559.869H509.944V555.521Z" fill="white"/>
<path opacity="0.14" d="M515.785 555.521H511.435V559.869H515.785V555.521Z" fill="white"/>
<path opacity="0.66" d="M521.627 555.521H517.277V559.869H521.627V555.521Z" fill="white"/>
<path opacity="0.92" d="M527.344 555.521H522.994V559.869H527.344V555.521Z" fill="white"/>
<path opacity="0.4" d="M533.186 555.521H528.836V559.869H533.186V555.521Z" fill="white"/>
<path opacity="0.6" d="M539.028 555.521H534.678V559.869H539.028V555.521Z" fill="white"/>
<path opacity="0.99" d="M544.745 555.521H540.395V559.869H544.745V555.521Z" fill="white"/>
<path opacity="0.68" d="M550.587 555.521H546.237V559.869H550.587V555.521Z" fill="white"/>
<path opacity="0.01" d="M556.429 555.521H552.078V559.869H556.429V555.521Z" fill="white"/>
<path d="M424.928 441.733H383.912V570.179H424.928V441.733Z" fill="#333333"/>
<path d="M402.556 435.273H383.912V442.478H402.556V435.273Z" fill="#333333"/>
<path d="M394.726 431.05H383.912V435.274H394.726V431.05Z" fill="#333333"/>
<path opacity="0.25" d="M407.652 450.801H400.94V457.509H407.652V450.801Z" fill="white"/>
<path opacity="0.15" d="M407.652 467.323H400.94V474.031H407.652V467.323Z" fill="white"/>
<path opacity="0.19" d="M407.652 500.242H400.94V506.95H407.652V500.242Z" fill="white"/>
<path opacity="0.17" d="M407.652 516.639H400.94V523.347H407.652V516.639Z" fill="white"/>
<path opacity="0.22" d="M407.652 533.036H400.94V539.744H407.652V533.036Z" fill="white"/>
<path d="M407.652 549.558H400.94V556.266H407.652V549.558Z" fill="white"/>
<path d="M394.477 513.285H356.071V524.59H394.477V513.285Z" fill="#333333"/>
<path d="M413.618 513.285H394.477V524.59H413.618V513.285Z" fill="#4D4D4D"/>
<path d="M356.071 513.285L368.003 507.571L394.477 513.285H356.071Z" fill="#333333"/>
<path d="M368.003 507.571L394.477 513.285H413.618L368.003 507.571Z" fill="#4D4D4D"/>
<path d="M403.426 521.235H347.246V572.663H403.426V521.235Z" fill="#333333"/>
<path d="M422.07 521.235H403.426V572.663H422.07V521.235Z" fill="#4D4D4D"/>
<path opacity="0.81" d="M417.72 524.838H407.652V528.565H417.72V524.838Z" fill="white"/>
<path opacity="0.76" d="M417.72 531.67H407.652V535.397H417.72V531.67Z" fill="white"/>
<path opacity="0.32" d="M417.72 538.502H407.652V542.229H417.72V538.502Z" fill="white"/>
<path opacity="0.49" d="M417.72 545.459H407.652V549.185H417.72V545.459Z" fill="white"/>
<path opacity="0.1" d="M366.263 524.838H356.195V528.565H366.263V524.838Z" fill="white"/>
<path opacity="0.04" d="M380.308 524.838H370.24V528.565H380.308V524.838Z" fill="white"/>
<path opacity="0.07" d="M394.477 524.838H384.41V528.565H394.477V524.838Z" fill="white"/>
<path opacity="0.06" d="M366.263 531.67H356.195V535.397H366.263V531.67Z" fill="white"/>
<path opacity="0.44" d="M380.308 531.67H370.24V535.397H380.308V531.67Z" fill="white"/>
<path opacity="0.24" d="M394.477 531.67H384.41V535.397H394.477V531.67Z" fill="white"/>
<path opacity="0.55" d="M366.263 538.502H356.195V542.229H366.263V538.502Z" fill="white"/>
<path opacity="0.02" d="M380.308 538.502H370.24V542.229H380.308V538.502Z" fill="white"/>
<path opacity="0.14" d="M394.477 538.502H384.41V542.229H394.477V538.502Z" fill="white"/>
<path opacity="0.43" d="M366.263 545.459H356.195V549.185H366.263V545.459Z" fill="white"/>
<path opacity="0.41" d="M380.308 545.459H370.24V549.185H380.308V545.459Z" fill="white"/>
<path opacity="0.46" d="M394.477 545.459H384.41V549.185H394.477V545.459Z" fill="white"/>
<path opacity="0.45" d="M366.263 552.291H356.195V556.018H366.263V552.291Z" fill="white"/>
<path opacity="0.33" d="M380.308 552.291H370.24V556.018H380.308V552.291Z" fill="white"/>
<path opacity="0.05" d="M394.477 552.291H384.41V556.018H394.477V552.291Z" fill="white"/>
<path d="M130.11 469.807H95.3082V577.011H130.11V469.807Z" fill="#333333"/>
<path d="M169.759 469.807H130.234V577.011H169.759V469.807Z" fill="#4D4D4D"/>
<path d="M130.11 478.876H95.3082V480.739H130.11V478.876Z" fill="#4D4D4D"/>
<path d="M169.759 478.876H130.234V480.739H169.759V478.876Z" fill="#333333"/>
<path opacity="0.47" d="M101.896 482.851H98.167V486.577H101.896V482.851Z" fill="white"/>
<path opacity="0.26" d="M106.992 482.851H103.263V486.577H106.992V482.851Z" fill="white"/>
<path opacity="0.32" d="M112.088 482.851H108.359V486.577H112.088V482.851Z" fill="white"/>
<path opacity="0.25" d="M117.184 482.851H113.455V486.577H117.184V482.851Z" fill="white"/>
<path opacity="0.12" d="M127.375 482.851H123.647V486.577H127.375V482.851Z" fill="white"/>
<path opacity="0.32" d="M101.896 487.944H98.167V491.671H101.896V487.944Z" fill="white"/>
<path opacity="0.22" d="M112.088 487.944H108.359V491.671H112.088V487.944Z" fill="white"/>
<path opacity="0.47" d="M117.184 487.944H113.455V491.671H117.184V487.944Z" fill="white"/>
<path opacity="0.22" d="M122.28 487.944H118.551V491.671H122.28V487.944Z" fill="white"/>
<path opacity="0.32" d="M127.375 487.944H123.647V491.671H127.375V487.944Z" fill="white"/>
<path opacity="0.37" d="M101.896 493.037H98.167V496.764H101.896V493.037Z" fill="white"/>
<path opacity="0.34" d="M106.992 493.037H103.263V496.764H106.992V493.037Z" fill="white"/>
<path opacity="0.18" d="M112.088 493.037H108.359V496.764H112.088V493.037Z" fill="white"/>
<path opacity="0.28" d="M117.184 493.037H113.455V496.764H117.184V493.037Z" fill="white"/>
<path opacity="0.2" d="M127.375 493.037H123.647V496.764H127.375V493.037Z" fill="white"/>
<path opacity="0.18" d="M101.896 498.13H98.167V501.857H101.896V498.13Z" fill="white"/>
<path opacity="0.33" d="M112.088 498.13H108.359V501.857H112.088V498.13Z" fill="white"/>
<path opacity="0.05" d="M117.184 498.13H113.455V501.857H117.184V498.13Z" fill="white"/>
<path opacity="0.08" d="M122.28 498.13H118.551V501.857H122.28V498.13Z" fill="white"/>
<path opacity="0.08" d="M117.184 503.223H113.455V506.95H117.184V503.223Z" fill="white"/>
<path opacity="0.02" d="M122.28 503.223H118.551V506.95H122.28V503.223Z" fill="white"/>
<path opacity="0.03" d="M101.896 508.316H98.167V512.043H101.896V508.316Z" fill="white"/>
<path opacity="0.46" d="M106.992 508.316H103.263V512.043H106.992V508.316Z" fill="white"/>
<path opacity="0.05" d="M112.088 508.316H108.359V512.043H112.088V508.316Z" fill="white"/>
<path opacity="0.2" d="M117.184 508.316H113.455V512.043H117.184V508.316Z" fill="white"/>
<path opacity="0.23" d="M122.28 508.316H118.551V512.043H122.28V508.316Z" fill="white"/>
<path opacity="0.17" d="M101.896 513.409H98.167V517.136H101.896V513.409Z" fill="white"/>
<path opacity="0.08" d="M106.992 513.409H103.263V517.136H106.992V513.409Z" fill="white"/>
<path opacity="0.14" d="M112.088 513.409H108.359V517.136H112.088V513.409Z" fill="white"/>
<path opacity="0.24" d="M122.28 513.409H118.551V517.136H122.28V513.409Z" fill="white"/>
<path opacity="0.28" d="M101.896 518.502H98.167V522.229H101.896V518.502Z" fill="white"/>
<path opacity="0.3" d="M106.992 518.502H103.263V522.229H106.992V518.502Z" fill="white"/>
<path opacity="0.23" d="M112.088 518.502H108.359V522.229H112.088V518.502Z" fill="white"/>
<path opacity="0.02" d="M117.184 518.502H113.455V522.229H117.184V518.502Z" fill="white"/>
<path opacity="0.04" d="M122.28 518.502H118.551V522.229H122.28V518.502Z" fill="white"/>
<path opacity="0.3" d="M127.375 518.502H123.647V522.229H127.375V518.502Z" fill="white"/>
<path opacity="0.08" d="M106.992 523.471H103.263V527.198H106.992V523.471Z" fill="white"/>
<path opacity="0.4" d="M127.375 523.471H123.647V527.198H127.375V523.471Z" fill="white"/>
<path opacity="0.31" d="M101.896 528.564H98.167V532.291H101.896V528.564Z" fill="white"/>
<path opacity="0.31" d="M106.992 528.564H103.263V532.291H106.992V528.564Z" fill="white"/>
<path opacity="0.12" d="M112.088 528.564H108.359V532.291H112.088V528.564Z" fill="white"/>
<path opacity="0.19" d="M122.28 528.564H118.551V532.291H122.28V528.564Z" fill="white"/>
<path opacity="0.43" d="M127.375 528.564H123.647V532.291H127.375V528.564Z" fill="white"/>
<path opacity="0.12" d="M101.896 533.658H98.167V537.385H101.896V533.658Z" fill="white"/>
<path opacity="0.42" d="M117.184 533.658H113.455V537.385H117.184V533.658Z" fill="white"/>
<path opacity="0.31" d="M127.375 533.658H123.647V537.385H127.375V533.658Z" fill="white"/>
<path opacity="0.23" d="M101.896 538.751H98.167V542.477H101.896V538.751Z" fill="white"/>
<path opacity="0.31" d="M117.184 538.751H113.455V542.477H117.184V538.751Z" fill="white"/>
<path opacity="0.33" d="M127.375 538.751H123.647V542.477H127.375V538.751Z" fill="white"/>
<path opacity="0.49" d="M101.896 543.844H98.167V547.571H101.896V543.844Z" fill="white"/>
<path opacity="0.06" d="M106.992 543.844H103.263V547.571H106.992V543.844Z" fill="white"/>
<path opacity="0.17" d="M117.184 543.844H113.455V547.571H117.184V543.844Z" fill="white"/>
<path opacity="0.01" d="M122.28 543.844H118.551V547.571H122.28V543.844Z" fill="white"/>
<path opacity="0.48" d="M127.375 543.844H123.647V547.571H127.375V543.844Z" fill="white"/>
<path opacity="0.05" d="M101.896 548.937H98.167V552.664H101.896V548.937Z" fill="white"/>
<path opacity="0.23" d="M106.992 548.937H103.263V552.664H106.992V548.937Z" fill="white"/>
<path opacity="0.28" d="M112.088 548.937H108.359V552.664H112.088V548.937Z" fill="white"/>
<path opacity="0.02" d="M117.184 548.937H113.455V552.664H117.184V548.937Z" fill="white"/>
<path opacity="0.17" d="M122.28 548.937H118.551V552.664H122.28V548.937Z" fill="white"/>
<path opacity="0.42" d="M127.375 548.937H123.647V552.664H127.375V548.937Z" fill="white"/>
<path opacity="0.13" d="M101.896 554.03H98.167V557.757H101.896V554.03Z" fill="white"/>
<path opacity="0.11" d="M112.088 554.03H108.359V557.757H112.088V554.03Z" fill="white"/>
<path opacity="0.02" d="M117.184 554.03H113.455V557.757H117.184V554.03Z" fill="white"/>
<path opacity="0.3" d="M127.375 554.03H123.647V557.757H127.375V554.03Z" fill="white"/>
<path opacity="0.08" d="M122.28 482.851H118.551V486.577H122.28V482.851Z" fill="white"/>
<path opacity="0.1" d="M106.992 487.944H103.263V491.671H106.992V487.944Z" fill="white"/>
<path opacity="0.08" d="M122.28 493.037H118.551V496.764H122.28V493.037Z" fill="white"/>
<path opacity="0.1" d="M106.992 498.13H103.263V501.857H106.992V498.13Z" fill="white"/>
<path opacity="0.01" d="M127.375 498.13H123.647V501.857H127.375V498.13Z" fill="white"/>
<path opacity="0.17" d="M101.896 503.223H98.167V506.95H101.896V503.223Z" fill="white"/>
<path opacity="0.01" d="M106.992 503.223H103.263V506.95H106.992V503.223Z" fill="white"/>
<path opacity="0.15" d="M112.088 503.223H108.359V506.95H112.088V503.223Z" fill="white"/>
<path opacity="0.12" d="M127.375 503.223H123.647V506.95H127.375V503.223Z" fill="white"/>
<path opacity="0.13" d="M117.184 513.409H113.455V517.136H117.184V513.409Z" fill="white"/>
<path opacity="0.07" d="M127.375 513.409H123.647V517.136H127.375V513.409Z" fill="white"/>
<path opacity="0.13" d="M101.896 523.471H98.167V527.198H101.896V523.471Z" fill="white"/>
<path opacity="0.02" d="M112.088 523.471H108.359V527.198H112.088V523.471Z" fill="white"/>
<path opacity="0.02" d="M117.184 523.471H113.455V527.198H117.184V523.471Z" fill="white"/>
<path opacity="0.14" d="M122.28 523.471H118.551V527.198H122.28V523.471Z" fill="white"/>
<path opacity="0.09" d="M112.088 533.658H108.359V537.385H112.088V533.658Z" fill="white"/>
<path opacity="0.02" d="M122.28 533.658H118.551V537.385H122.28V533.658Z" fill="white"/>
<path opacity="0.19" d="M112.088 538.751H108.359V542.477H112.088V538.751Z" fill="white"/>
<path opacity="0.06" d="M122.28 538.751H118.551V542.477H122.28V538.751Z" fill="white"/>
<path opacity="0.16" d="M112.088 543.844H108.359V547.571H112.088V543.844Z" fill="white"/>
<path opacity="0.19" d="M106.992 554.03H103.263V557.757H106.992V554.03Z" fill="white"/>
<path opacity="0.04" d="M122.28 554.03H118.551V557.757H122.28V554.03Z" fill="white"/>
<g opacity="0.7">
<path opacity="0.7" d="M137.692 480.739H133.839V572.291H137.692V480.739Z" fill="#E6E6E6"/>
<path opacity="0.7" d="M144.279 480.739H140.426V572.291H144.279V480.739Z" fill="#E6E6E6"/>
<path opacity="0.7" d="M150.991 480.739H147.138V572.291H150.991V480.739Z" fill="#E6E6E6"/>
<path opacity="0.7" d="M157.702 480.739H153.849V572.291H157.702V480.739Z" fill="#E6E6E6"/>
<path opacity="0.7" d="M164.414 480.739H160.561V572.291H164.414V480.739Z" fill="#E6E6E6"/>
</g>
<path d="M52.5521 417.261L44.846 396.889L65.4784 417.261H52.5521Z" fill="#4D4D4D"/>
<path d="M34.5298 417.261L44.846 396.889L52.5521 417.261H34.5298Z" fill="#333333"/>
<path d="M52.5521 417.261H34.5298V439H52.5521V417.261Z" fill="#333333"/>
<path d="M65.4783 417.261H52.5521V439H65.4783V417.261Z" fill="#4D4D4D"/>
<path d="M70.8229 515.024H16.259V577.508H70.8229V515.024Z" fill="#333333"/>
<path d="M63.3654 470.304H23.8408V515.024H63.3654V470.304Z" fill="#333333"/>
<path d="M57.648 425.584H29.5582V470.304H57.648V425.584Z" fill="#333333"/>
<path d="M76.9131 425.584H57.5237V470.304H76.9131V425.584Z" fill="#4D4D4D"/>
<path d="M104.381 515.024H70.8229V577.508H104.381V515.024Z" fill="#4D4D4D"/>
<path d="M88.8451 470.304H63.3654V515.024H88.8451V470.304Z" fill="#4D4D4D"/>
<path opacity="0.53" d="M70.2014 428.814H64.3597V434.652H70.2014V428.814Z" fill="white"/>
<path opacity="0.34" d="M70.2014 436.143H64.3597V441.981H70.2014V436.143Z" fill="white"/>
<path opacity="0.9" d="M70.2014 443.348H64.3597V449.186H70.2014V443.348Z" fill="white"/>
<path opacity="0.14" d="M70.2014 450.553H64.3597V456.391H70.2014V450.553Z" fill="white"/>
<path d="M70.2014 457.882H64.3597V463.72H70.2014V457.882Z" fill="white"/>
<path opacity="0.29" d="M74.5517 474.155H68.71V479.993H74.5517V474.155Z" fill="white"/>
<path opacity="0.81" d="M83.5006 474.155H77.6589V479.993H83.5006V474.155Z" fill="white"/>
<path opacity="0.18" d="M74.5517 481.484H68.71V487.323H74.5517V481.484Z" fill="white"/>
<path opacity="0.41" d="M83.5006 481.484H77.6589V487.323H83.5006V481.484Z" fill="white"/>
<path opacity="0.03" d="M83.5006 488.938H77.6589V494.776H83.5006V488.938Z" fill="white"/>
<path opacity="0.85" d="M74.5517 496.391H68.71V502.229H74.5517V496.391Z" fill="white"/>
<path opacity="0.06" d="M83.5006 496.391H77.6589V502.229H83.5006V496.391Z" fill="white"/>
<path opacity="0.94" d="M74.5517 503.72H68.71V509.558H74.5517V503.72Z" fill="white"/>
<path opacity="0.25" d="M83.5006 503.72H77.6589V509.558H83.5006V503.72Z" fill="white"/>
<path opacity="0.6" d="M82.7548 518.875H76.9131V524.713H82.7548V518.875Z" fill="white"/>
<path opacity="0.83" d="M90.5852 518.875H84.7435V524.713H90.5852V518.875Z" fill="white"/>
<path opacity="0.74" d="M98.4155 518.875H92.5739V524.713H98.4155V518.875Z" fill="white"/>
<path opacity="0.35" d="M90.5852 525.956H84.7435V531.794H90.5852V525.956Z" fill="white"/>
<path opacity="0.54" d="M98.4155 525.956H92.5739V531.794H98.4155V525.956Z" fill="white"/>
<path opacity="0.2" d="M82.7548 533.036H76.9131V538.875H82.7548V533.036Z" fill="white"/>
<path opacity="0.04" d="M90.5852 533.036H84.7435V538.875H90.5852V533.036Z" fill="white"/>
<path opacity="0.86" d="M98.4155 533.036H92.5739V538.875H98.4155V533.036Z" fill="white"/>
<path opacity="0.06" d="M82.7548 540.117H76.9131V545.956H82.7548V540.117Z" fill="white"/>
<path opacity="0.01" d="M90.5852 540.117H84.7435V545.956H90.5852V540.117Z" fill="white"/>
<path opacity="0.39" d="M98.4155 540.117H92.5739V545.956H98.4155V540.117Z" fill="white"/>
<path opacity="0.1" d="M82.7548 547.322H76.9131V553.16H82.7548V547.322Z" fill="white"/>
<path d="M90.5852 547.322H84.7435V553.16H90.5852V547.322Z" fill="white"/>
<path opacity="0.62" d="M98.4155 547.322H92.5739V553.16H98.4155V547.322Z" fill="white"/>
<path opacity="0.48" d="M82.7548 554.651H76.9131V560.49H82.7548V554.651Z" fill="white"/>
<path opacity="0.27" d="M90.5852 554.651H84.7435V560.49H90.5852V554.651Z" fill="white"/>
<path opacity="0.42" d="M98.4155 554.651H92.5739V560.49H98.4155V554.651Z" fill="white"/>
<path opacity="0.27" d="M27.9424 518.875H22.1007V524.713H27.9424V518.875Z" fill="white"/>
<path opacity="0.11" d="M34.5298 474.155H28.6881V479.993H34.5298V474.155Z" fill="white"/>
<path opacity="0.41" d="M39.1286 428.814H33.2869V434.652H39.1286V428.814Z" fill="white"/>
<path opacity="0.38" d="M46.4618 428.814H40.6201V434.652H46.4618V428.814Z" fill="white"/>
<path opacity="0.02" d="M53.9193 428.814H48.0776V434.652H53.9193V428.814Z" fill="white"/>
<path opacity="0.46" d="M39.1286 436.143H33.2869V441.981H39.1286V436.143Z" fill="white"/>
<path opacity="0.31" d="M46.4618 436.143H40.6201V441.981H46.4618V436.143Z" fill="white"/>
<path opacity="0.61" d="M53.9193 436.143H48.0776V441.981H53.9193V436.143Z" fill="white"/>
<path opacity="0.03" d="M39.1286 443.348H33.2869V449.186H39.1286V443.348Z" fill="white"/>
<path opacity="0.03" d="M46.4618 443.348H40.6201V449.186H46.4618V443.348Z" fill="white"/>
<path opacity="0.46" d="M53.9193 443.348H48.0776V449.186H53.9193V443.348Z" fill="white"/>
<path opacity="0.32" d="M39.1286 450.553H33.2869V456.391H39.1286V450.553Z" fill="white"/>
<path opacity="0.14" d="M46.4618 450.553H40.6201V456.391H46.4618V450.553Z" fill="white"/>
<path opacity="0.3" d="M53.9193 450.553H48.0776V456.391H53.9193V450.553Z" fill="white"/>
<path opacity="0.04" d="M39.1286 457.882H33.2869V463.72H39.1286V457.882Z" fill="white"/>
<path opacity="0.64" d="M46.4618 457.882H40.6201V463.72H46.4618V457.882Z" fill="white"/>
<path opacity="0.05" d="M53.9193 457.882H48.0776V463.72H53.9193V457.882Z" fill="white"/>
<path opacity="0.15" d="M41.9873 474.155H36.1456V479.993H41.9873V474.155Z" fill="white"/>
<path opacity="0.15" d="M49.4448 474.155H43.6031V479.993H49.4448V474.155Z" fill="white"/>
<path opacity="0.52" d="M56.778 474.155H50.9363V479.993H56.778V474.155Z" fill="white"/>
<path opacity="0.58" d="M34.5298 481.484H28.6881V487.323H34.5298V481.484Z" fill="white"/>
<path opacity="0.62" d="M41.9873 481.484H36.1456V487.323H41.9873V481.484Z" fill="white"/>
<path opacity="0.04" d="M49.4448 481.484H43.6031V487.323H49.4448V481.484Z" fill="white"/>
<path opacity="0.06" d="M56.778 481.484H50.9363V487.323H56.778V481.484Z" fill="white"/>
<path opacity="0.3" d="M34.5298 488.938H28.6881V494.776H34.5298V488.938Z" fill="white"/>
<path opacity="0.01" d="M41.9873 488.938H36.1456V494.776H41.9873V488.938Z" fill="white"/>
<path opacity="0.37" d="M49.4448 488.938H43.6031V494.776H49.4448V488.938Z" fill="white"/>
<path opacity="0.62" d="M56.778 488.938H50.9363V494.776H56.778V488.938Z" fill="white"/>
<path opacity="0.54" d="M34.5298 496.391H28.6881V502.229H34.5298V496.391Z" fill="white"/>
<path opacity="0.21" d="M41.9873 496.391H36.1456V502.229H41.9873V496.391Z" fill="white"/>
<path opacity="0.41" d="M49.4448 496.391H43.6031V502.229H49.4448V496.391Z" fill="white"/>
<path opacity="0.1" d="M56.778 496.391H50.9363V502.229H56.778V496.391Z" fill="white"/>
<path opacity="0.17" d="M34.5298 503.72H28.6881V509.558H34.5298V503.72Z" fill="white"/>
<path opacity="0.17" d="M41.9873 503.72H36.1456V509.558H41.9873V503.72Z" fill="white"/>
<path opacity="0.13" d="M49.4448 503.72H43.6031V509.558H49.4448V503.72Z" fill="white"/>
<path opacity="0.5" d="M56.778 503.72H50.9363V509.558H56.778V503.72Z" fill="white"/>
<path opacity="0.06" d="M35.3999 518.875H29.5582V524.713H35.3999V518.875Z" fill="white"/>
<path opacity="0.27" d="M42.733 518.875H36.8914V524.713H42.733V518.875Z" fill="white"/>
<path opacity="0.51" d="M50.1906 518.875H44.3489V524.713H50.1906V518.875Z" fill="white"/>
<path opacity="0.42" d="M57.648 518.875H51.8063V524.713H57.648V518.875Z" fill="white"/>
<path opacity="0.64" d="M64.9812 518.875H59.1395V524.713H64.9812V518.875Z" fill="white"/>
<path opacity="0.29" d="M27.9424 525.956H22.1007V531.794H27.9424V525.956Z" fill="white"/>
<path opacity="0.6" d="M35.3999 525.956H29.5582V531.794H35.3999V525.956Z" fill="white"/>
<path opacity="0.2" d="M42.733 525.956H36.8914V531.794H42.733V525.956Z" fill="white"/>
<path opacity="0.24" d="M50.1906 525.956H44.3489V531.794H50.1906V525.956Z" fill="white"/>
<path opacity="0.62" d="M57.648 525.956H51.8063V531.794H57.648V525.956Z" fill="white"/>
<path opacity="0.62" d="M64.9812 525.956H59.1395V531.794H64.9812V525.956Z" fill="white"/>
<path opacity="0.25" d="M27.9424 533.036H22.1007V538.875H27.9424V533.036Z" fill="white"/>
<path opacity="0.36" d="M35.3999 533.036H29.5582V538.875H35.3999V533.036Z" fill="white"/>
<path opacity="0.16" d="M42.733 533.036H36.8914V538.875H42.733V533.036Z" fill="white"/>
<path opacity="0.1" d="M50.1906 533.036H44.3489V538.875H50.1906V533.036Z" fill="white"/>
<path opacity="0.04" d="M57.648 533.036H51.8063V538.875H57.648V533.036Z" fill="white"/>
<path opacity="0.44" d="M64.9812 533.036H59.1395V538.875H64.9812V533.036Z" fill="white"/>
<path opacity="0.68" d="M27.9424 540.117H22.1007V545.956H27.9424V540.117Z" fill="white"/>
<path opacity="0.01" d="M35.3999 540.117H29.5582V545.956H35.3999V540.117Z" fill="white"/>
<path opacity="0.29" d="M42.733 540.117H36.8914V545.956H42.733V540.117Z" fill="white"/>
<path opacity="0.66" d="M50.1906 540.117H44.3489V545.956H50.1906V540.117Z" fill="white"/>
<path opacity="0.12" d="M57.648 540.117H51.8063V545.956H57.648V540.117Z" fill="white"/>
<path opacity="0.34" d="M64.9812 540.117H59.1395V545.956H64.9812V540.117Z" fill="white"/>
<path opacity="0.36" d="M27.9424 547.322H22.1007V553.16H27.9424V547.322Z" fill="white"/>
<path opacity="0.5" d="M35.3999 547.322H29.5582V553.16H35.3999V547.322Z" fill="white"/>
<path opacity="0.07" d="M42.733 547.322H36.8914V553.16H42.733V547.322Z" fill="white"/>
<path opacity="0.64" d="M50.1906 547.322H44.3489V553.16H50.1906V547.322Z" fill="white"/>
<path opacity="0.4" d="M57.648 547.322H51.8063V553.16H57.648V547.322Z" fill="white"/>
<path opacity="0.27" d="M64.9812 547.322H59.1395V553.16H64.9812V547.322Z" fill="white"/>
<path opacity="0.09" d="M27.9424 554.651H22.1007V560.49H27.9424V554.651Z" fill="white"/>
<path opacity="0.47" d="M35.3999 554.651H29.5582V560.49H35.3999V554.651Z" fill="white"/>
<path opacity="0.57" d="M42.733 554.651H36.8914V560.49H42.733V554.651Z" fill="white"/>
<path opacity="0.12" d="M50.1906 554.651H44.3489V560.49H50.1906V554.651Z" fill="white"/>
<path opacity="0.23" d="M57.648 554.651H51.8063V560.49H57.648V554.651Z" fill="white"/>
<path opacity="0.36" d="M64.9812 554.651H59.1395V560.49H64.9812V554.651Z" fill="white"/>
<path d="M189.645 572.291H112.336L189.645 504.962V572.291Z" fill="#333333"/>
<path d="M23.8408 573.657H-83.2982L23.8408 480.49V573.657Z" fill="#333333"/>
<path d="M181.069 556.887H158.448V563.844H181.069V556.887Z" fill="#4D4D4D"/>
<path d="M178.459 558.999H160.934L167.024 548.813H172.369L178.459 558.999Z" fill="#4D4D4D"/>
<path d="M84.3707 566.701C84.3707 571.545 80.5176 575.52 75.7946 575.52C71.0715 575.52 67.2184 571.545 67.2184 566.701C67.2184 561.856 71.0715 557.881 75.7946 557.881C80.5176 557.757 84.3707 561.732 84.3707 566.701Z" fill="#333333"/>
<path d="M315.179 562.85C315.179 566.08 312.569 568.813 309.462 568.813C306.355 568.813 303.745 566.204 303.745 562.85C303.745 559.62 306.355 556.887 309.462 556.887C312.569 556.887 315.179 559.62 315.179 562.85Z" fill="#333333"/>
<path d="M114.946 563.222C114.946 566.576 112.336 569.309 108.98 569.309C105.749 569.309 103.014 566.576 103.014 563.222C103.014 559.868 105.624 557.135 108.98 557.135C112.336 557.135 114.946 559.868 114.946 563.222Z" fill="#333333"/>
</g>
<defs>
<clipPath id="clip0_1_9696">
<rect width="811" height="559" fill="white" transform="translate(-174.776 -0.000976562)"/>
</clipPath>
</defs>
</svg>
